<?xml version="1.0" encoding="UTF-8" standalone="no"?>
<!-- Created with Inkscape (http://www.inkscape.org/) -->

<svg
   xmlns:dc="http://purl.org/dc/elements/1.1/"
   xmlns:cc="http://creativecommons.org/ns#"
   xmlns:rdf="http://www.w3.org/1999/02/22-rdf-syntax-ns#"
   xmlns:svg="http://www.w3.org/2000/svg"
   xmlns="http://www.w3.org/2000/svg"
   xmlns:inkscape="http://www.inkscape.org/namespaces/inkscape"
   version="1.1"
   width="354.32501"
   height="354.32501"
   id="svg2"
   xml:space="preserve"><metadata
     id="metadata8"><rdf:RDF><cc:Work
         rdf:about=""><dc:format>image/svg+xml</dc:format><dc:type
           rdf:resource="http://purl.org/dc/dcmitype/StillImage" /></cc:Work></rdf:RDF></metadata><defs
     id="defs6" /><g
     transform="matrix(1.25,0,0,-1.25,0,354.325)"
     id="g10"><g
       transform="scale(0.1,0.1)"
       id="g12"><path
         d="m 2409.4,2834.6 -1984.205,0 C 191.34,2834.6 0,2643.26 0,2409.41 L 0,425.199 C 0,191.34 191.34,0 425.195,0 L 2409.4,0 c 233.86,0 425.2,191.34 425.2,425.199 l 0,1984.211 c 0,233.85 -191.34,425.19 -425.2,425.19 l 0,0 z m 0,-80 c 190.35,0 345.2,-154.85 345.2,-345.19 l 0,-1984.211 C 2754.6,234.852 2599.75,80 2409.4,80 L 425.195,80 C 234.855,80 80,234.852 80,425.199 l 0,1984.211 c 0,190.34 154.855,345.19 345.195,345.19 l 1984.205,0"
         inkscape:connector-curvature="0"
         id="path14"
         style="fill:#231f20;fill-opacity:1;fill-rule:nonzero;stroke:none" /><g
         transform="scale(10,10)"
         id="g16"><text
           transform="matrix(1,0,0,-1,81.7301,212.594)"
           id="text18"><tspan
             x="0 43.32 79.980003"
             y="0"
             id="tspan20"
             style="font-size:60px;font-variant:normal;font-weight:bold;writing-mode:lr-tb;fill:#231f20;fill-opacity:1;fill-rule:nonzero;stroke:none;font-family:Arial;-inkscape-font-specification:Arial-BoldMT">BLE</tspan></text>
</g><path
         d="m 799.547,1120.04 c 0,0 -51.66,864.16 605.913,864.16 719.14,0 626.78,-893.97 626.78,-893.97 0,0 71.5,-824.429 -657.59,-804.57 -626.763,9.942 -575.103,834.38 -575.103,834.38"
         inkscape:connector-curvature="0"
         id="path22"
         style="fill:#346ebf;fill-opacity:1;fill-rule:nonzero;stroke:none" /><path
         d="M 1644.5,841.91 1511.4,692.922 1505.43,980.988 1644.5,841.91 m -139.07,725.11 144.02,-139.05 -144.02,-139.07 0,278.12 z m 318.86,-725.11 -293.03,297.99 288.06,288.07 -437.06,437.05 0,-576.12 -241.36,238.39 -87.41,-89.39 302.94,-307.93 -302.94,-297.99 92.36,-89.378 236.41,228.457 0,-576.129 442.03,446.98"
         inkscape:connector-curvature="0"
         id="path24"
         style="fill:#ffffff;fill-opacity:1;fill-rule:nonzero;stroke:none" /></g></g></svg>